<?xml version="1.0" encoding="utf-8"?>
<!-- Generator: Adobe Illustrator 16.2.1, SVG Export Plug-In . SVG Version: 6.00 Build 0)  -->
<!DOCTYPE svg PUBLIC "-//W3C//DTD SVG 1.1//EN" "http://www.w3.org/Graphics/SVG/1.1/DTD/svg11.dtd">
<svg version="1.1" id="Ebene_1" xmlns="http://www.w3.org/2000/svg" xmlns:xlink="http://www.w3.org/1999/xlink" x="0px" y="0px"
	 width="791.5px" height="133.5px" viewBox="0 0 791.5 133.5" enable-background="new 0 0 791.5 133.5" xml:space="preserve">
<polygon points="260.582,5.936 273.886,5.936 273.886,127.563 260.582,127.563 "/>
<polygon points="273.886,61.048 326.148,5.936 342.3,5.936 290.039,60.573 347.528,127.563 329.948,127.563 "/>
<polygon points="353.229,5.936 366.531,5.936 366.531,127.563 353.229,127.563 "/>
<path d="M434.471,60.098c7.603,3.325,14.253,8.075,18.529,13.776c3.801,5.703,6.176,11.879,6.176,19.479
	c0,11.403-3.801,20.905-10.928,27.558c-7.126,6.65-16.628,9.977-28.031,9.977c-9.502,0-17.578-2.375-23.755-7.127
	c-6.176-4.75-10.928-11.4-13.303-20.43l12.828-4.275c1.9,7.604,4.275,10.928,8.552,14.729c3.801,3.801,9.502,5.703,15.678,5.703
	c7.127,0,13.305-2.377,18.056-6.178c4.274-4.275,7.126-9.502,7.126-17.104c0-5.227-0.95-9.502-4.275-13.777
	c-2.851-3.801-7.602-8.077-14.729-11.403l-14.729-6.176c-8.076-3.326-14.253-7.127-18.054-12.828
	c-3.801-5.228-6.177-11.401-6.177-19.004c0-8.554,2.852-16.154,9.503-21.854c6.176-5.701,15.202-9.027,25.18-9.027
	c7.127,0,13.304,1.426,18.529,4.752c5.227,3.324,9.503,7.602,12.354,13.777l-11.878,7.602c0,0-4.276-6.65-9.027-9.977
	c-2.851-1.9-7.602-3.802-11.878-3.802c-5.701,0-10.452,1.9-14.728,5.701c-3.326,3.325-4.276,8.076-4.276,13.304
	c0,4.275,1.9,8.076,4.751,11.401c2.376,3.325,7.603,6.177,12.828,8.552L434.471,60.098L434.471,60.098z"/>
<path d="M763.72,60.573c7.603,3.325,14.253,8.076,18.529,13.777c3.801,5.701,6.176,11.878,6.176,19.479
	c0,11.402-3.801,20.904-10.927,27.557c-7.127,6.652-16.629,9.979-28.031,9.979c-9.503,0-17.579-2.375-23.756-7.127
	c-6.177-4.75-10.928-11.402-13.303-20.431l12.827-4.274c1.9,7.602,4.752,10.928,8.553,14.729s9.502,5.701,15.679,5.701
	c7.126,0,13.304-2.377,18.055-6.178c4.274-4.275,7.127-9.502,7.127-17.104c0-5.227-0.95-9.502-4.276-13.778
	c-2.851-3.801-7.602-8.077-14.729-11.401l-14.729-6.178c-8.076-3.324-14.253-7.126-18.054-12.828
	c-3.802-5.226-6.177-11.402-6.177-19.004c0-8.552,2.851-16.152,9.503-21.854c6.176-5.701,15.202-9.027,25.181-9.027
	c7.126,0,13.303,1.426,18.528,4.751c5.227,3.326,9.503,7.603,12.354,13.778l-11.402,7.126c0,0-4.275-6.651-9.026-9.978
	c-2.852-1.899-7.603-3.801-11.878-3.801c-5.701,0-10.452,1.9-14.729,5.701c-3.325,3.325-4.274,8.076-4.274,13.303
	c0,4.276,1.899,8.077,4.751,11.402c2.375,3.326,7.602,6.177,12.828,8.552L763.72,60.573L763.72,60.573z"/>
<polygon points="459.653,5.936 542.796,5.936 542.796,19.238 508.114,19.238 508.114,128.038 494.335,128.038 494.335,19.238 
	459.653,19.238 "/>
<polygon points="553.248,5.936 616.912,5.936 616.912,18.763 567.027,18.763 567.027,54.396 616.912,54.396 616.912,67.224 
	567.027,67.224 567.027,115.21 616.912,115.21 616.912,128.038 553.248,128.038 "/>
<path d="M665.373,17.337c19.005,0,23.28,14.729,23.28,21.381c0,6.65-3.325,20.43-26.605,20.43c-2.851,0-14.254,0-14.254,0V17.337
	H665.373L665.373,17.337z M647.795,128.038V69.6h2.852l44.658,58.438h17.579L666.323,69.6h3.801
	c20.905,0,31.833-15.204,32.308-29.933c0-7.602-3.801-33.258-38.959-33.258h-28.98v121.629H647.795L647.795,128.038z"/>
<polygon stroke="#000000" stroke-width="0.1479" stroke-miterlimit="3.8637" points="98.096,5.46 144.656,5.46 49.635,128.513 
	3.074,128.513 "/>
<polygon stroke="#000000" stroke-width="0.1479" stroke-miterlimit="3.8637" points="155.109,5.46 202.145,5.46 155.109,66.273 
	203.095,128.513 156.059,128.513 108.073,66.273 "/>
</svg>
